<svg xmlns="http://www.w3.org/2000/svg" xmlns:xlink="http://www.w3.org/1999/xlink" viewBox="0 0 750 500"><defs><clipPath id="freepik--clip-path--inject-2"><path d="M392.31,278.75H257.19a11.93,11.93,0,0,1-11.93-11.93h0a11.94,11.94,0,0,1,11.93-11.94H392.31a8.55,8.55,0,0,1,8.55,8.55v6.77A8.55,8.55,0,0,1,392.31,278.75Z" style="fill:none"></path></clipPath></defs><g id="freepik--background-complete--inject-2"><circle cx="613.85" cy="178.59" r="12.3" transform="translate(4.61 372.31) rotate(-33.86)" style="fill:#e0e0e0"></circle><circle cx="577.34" cy="178.59" r="13.1" style="fill:#e0e0e0"></circle><circle cx="549.28" cy="155.41" r="13.9" style="fill:#e0e0e0"></circle><circle cx="543.58" cy="119.79" r="14.52" style="fill:#e0e0e0"></circle><circle cx="561.37" cy="88.6" r="15.01" style="fill:#e0e0e0"></circle><circle cx="595.54" cy="76.27" r="16.36" style="fill:#e0e0e0"></circle><circle cx="640.98" cy="155.13" r="11.88" transform="translate(343.44 743.67) rotate(-76.79)" style="fill:#e0e0e0"></circle><circle cx="647.33" cy="119.39" r="11.02" style="fill:#e0e0e0"></circle><circle cx="629" cy="88.19" r="10.07" style="fill:#e0e0e0"></circle><path d="M212.21,62.17a31.4,31.4,0,0,1,8.06,2.12l5.92-5,10.17,7.74-3.2,7a31.25,31.25,0,0,1,4.19,7.2l7.7.68,1.71,12.66-7.23,2.71a30.94,30.94,0,0,1-2.13,8.05l5,5.92-7.73,10.17-7-3.2a31.46,31.46,0,0,1-7.2,4.19l-.68,7.7-12.67,1.72-2.7-7.24a31,31,0,0,1-8.06-2.13l-5.92,5-10.17-7.74,3.21-7a31.29,31.29,0,0,1-4.2-7.2l-7.69-.68L169.8,92.19,177,89.48a31.34,31.34,0,0,1,2.13-8l-5-5.93,7.74-10.17,7,3.21a31.65,31.65,0,0,1,7.2-4.2l.68-7.69,12.66-1.72,2.7,7.24ZM207,79.75a13.71,13.71,0,1,0,15.43,11.74A13.71,13.71,0,0,0,207,79.75Z" style="fill:none"></path><path d="M207,79.75a10.41,10.41,0,0,1,3.4-.18,13.82,13.82,0,0,1,11.76,9.35,14,14,0,0,1,.43,7.39,14,14,0,0,1-4,7.15,14,14,0,0,1-16.51,2.25,14.06,14.06,0,0,1-5.73-5.85,14,14,0,0,1-1.55-7.24,13.85,13.85,0,0,1,1.85-6.18,13.65,13.65,0,0,1,7-6,10.38,10.38,0,0,1,3.31-.73c0,.1-1.2.19-3.2,1a13.71,13.71,0,0,0-6.63,6,13.42,13.42,0,0,0-.13,12.81,12.64,12.64,0,0,0,2.26,3.09A12.35,12.35,0,0,0,202.5,105a13.28,13.28,0,0,0,15.6-2.12,13.3,13.3,0,0,0,3.79-6.75,13.43,13.43,0,0,0-.34-7,13.25,13.25,0,0,0-3.21-5.27,13.6,13.6,0,0,0-8-4A33.32,33.32,0,0,0,207,79.75Z" style="fill:#e0e0e0"></path><path d="M212.21,62.17s-.07-.14-.19-.45l-.54-1.35c-.49-1.25-1.18-3.06-2.09-5.39l.14.08-12.66,1.79.17-.18c-.19,2.33-.41,4.92-.64,7.69v.14l-.13.06a30.85,30.85,0,0,0-7.13,4.18l-.12.1-.15-.07-7-3.18.34-.09-7.71,10.19v-.38l5,5.91.13.15-.08.18a31.37,31.37,0,0,0-2.09,8l0,.21-.2.07-7.23,2.71.23-.37c.54,4,1.13,8.27,1.73,12.66l-.33-.31,7.69.67.23,0,.09.21a31,31,0,0,0,4.15,7.1l.14.18-.1.21c-1,2.21-2.09,4.61-3.2,7l-.11-.47,10.17,7.74h-.49l5.92-5,.18-.15.22.09a31.19,31.19,0,0,0,7.95,2.1h0c.14.11-.32-.25.32.26h0v0l0,0,0,.12.09.22.17.46.34.91.67,1.81c.46,1.21.9,2.41,1.35,3.61l-.42-.25,12.67-1.72-.34.35q.34-3.88.68-7.69l0-.23.22-.09a31.05,31.05,0,0,0,7.11-4.14l.18-.14.21.09,7,3.21-.45.12,7.75-10.17v.46c-1.68-2-3.34-4-5-5.93l-.14-.17.09-.19a31.34,31.34,0,0,0,2.11-8l0-.2.19-.07,7.24-2.69-.21.35c-.6-4.46-1.16-8.67-1.69-12.67l.27.26-7.69-.7-.17,0-.07-.15A31.11,31.11,0,0,0,233,74.26l-.09-.13.06-.14c1.17-2.55,2.23-4.84,3.23-7l.07.28-10.14-7.79h.22l-6,4.92-.06,0-.07,0a33,33,0,0,0-6-1.86l-1.52-.28-.51-.1a3.31,3.31,0,0,1,.52,0c.34,0,.85.1,1.54.23a29.59,29.59,0,0,1,6,1.75l-.13,0c1.61-1.37,3.53-3,5.89-5l.1-.09.12.08,10.2,7.7.15.11-.08.17c-1,2.18-2,4.48-3.18,7l0-.27a31.53,31.53,0,0,1,4.25,7.25l-.23-.17,7.69.66.24,0,0,.24c.55,4,1.12,8.2,1.74,12.66l0,.26-.24.09-7.23,2.71.22-.27a32.09,32.09,0,0,1-2.14,8.15l-.06-.36q2.45,2.89,5,5.91l.19.22-.18.23-7.73,10.18-.18.24-.27-.13-7-3.19.39,0a31.85,31.85,0,0,1-7.29,4.25l.24-.32c-.22,2.54-.45,5.1-.67,7.69l0,.31-.31,0-12.66,1.73-.31,0-.11-.3-1.35-3.6-.68-1.82-.34-.91-.17-.45-.09-.23,0-.11,0-.06v0h0c.64.51.18.14.32.25h0a31.82,31.82,0,0,1-8.15-2.15l.41-.06-5.93,5-.24.2-.24-.19L180,120.06l-.25-.18.13-.28,3.21-7,.05.39a31.8,31.8,0,0,1-4.24-7.29l.31.23-7.69-.68-.29,0,0-.29c-.6-4.4-1.17-8.69-1.71-12.67l0-.28.26-.09,7.23-2.7-.21.28a31.26,31.26,0,0,1,2.16-8.14l0,.33L174,75.7l-.16-.19.15-.19Q178,70,181.72,65.17l.13-.18.21.09,7,3.22-.27,0a31.29,31.29,0,0,1,7.27-4.21l-.14.19c.25-2.77.49-5.36.71-7.69v-.16l.16,0,12.67-1.64h.1l0,.09,1.94,5.39c.21.59.37,1,.49,1.4A2.54,2.54,0,0,1,212.21,62.17Z" style="fill:#e0e0e0"></path><path d="M151,136a44.29,44.29,0,0,1,11.39,3l8.37-7L185.17,143l-4.53,9.93a44.87,44.87,0,0,1,5.94,10.18l10.87,1L199.88,182l-10.23,3.82a43.89,43.89,0,0,1-3,11.39l7,8.37-10.94,14.38-9.94-4.53a44.29,44.29,0,0,1-10.18,5.94l-1,10.87-17.91,2.43-3.82-10.23a44.38,44.38,0,0,1-11.39-3l-8.37,7-14.38-10.94,4.53-9.94a44.25,44.25,0,0,1-5.93-10.18l-10.88-1-2.43-17.91,10.23-3.82a44,44,0,0,1,3-11.39l-7-8.37,10.94-14.38,9.94,4.53a44.46,44.46,0,0,1,10.18-5.93l1-10.88,17.91-2.43L151,136Zm-7.35,24.86a19.39,19.39,0,1,0,21.81,16.61A19.39,19.39,0,0,0,143.68,160.89Z" style="fill:#e0e0e0;fill-rule:evenodd"></path></g><g id="freepik--Floor--inject-2"><path d="M714,429c0,.15-151.79.26-339,.26S36,429.11,36,429s151.76-.26,339-.26S714,428.82,714,429Z" style="fill:#263238"></path></g><g id="freepik--Device--inject-2"><rect x="169.36" y="133.22" width="437.31" height="289.19" rx="14.57" style="fill:#455a64"></rect><path d="M152.27,403.73H626.06a0,0,0,0,1,0,0v7.51a17.8,17.8,0,0,1-17.8,17.8H170.07a17.8,17.8,0,0,1-17.8-17.8v-7.51a0,0,0,0,1,0,0Z" style="fill:#455a64"></path><rect x="181.1" y="144.71" width="412.61" height="244.22" style="fill:#263238"></rect><polygon points="344.91 401.02 350.79 410.37 433.52 410.37 438.98 401.02 344.91 401.02" style="fill:#263238"></polygon><rect x="189.6" y="152.98" width="396.46" height="235.17" rx="3.27" style="fill:#ebebeb"></rect><polygon points="585.64 388.49 189.18 388.49 189.6 170.55 585.64 170.55 585.64 388.49" style="fill:#fafafa"></polygon><path d="M222.11,162.06a3.17,3.17,0,1,1-3.16-3.17A3.16,3.16,0,0,1,222.11,162.06Z" style="fill:#263238"></path><path d="M202.92,162.06a3.17,3.17,0,1,1-3.16-3.17A3.16,3.16,0,0,1,202.92,162.06Z" style="fill:#263238"></path><path d="M212.14,162.06a3.17,3.17,0,1,1-3.17-3.17A3.17,3.17,0,0,1,212.14,162.06Z" style="fill:#263238"></path><path d="M602.91,401c0,.16-97.06.28-216.76.28s-216.79-.12-216.79-.28,97-.28,216.79-.28S602.91,400.86,602.91,401Z" style="fill:#263238"></path><path d="M526.6,278.75H257.19a11.93,11.93,0,0,1-11.93-11.93h0a11.94,11.94,0,0,1,11.93-11.94H526.6a11.94,11.94,0,0,1,11.93,11.94h0A11.93,11.93,0,0,1,526.6,278.75Z" style="fill:#ebebeb"></path><path d="M396.39,278.75H382A12,12,0,0,1,369.9,266.7h0a11.65,11.65,0,0,1,11.81-11.82l14.68.06a12.25,12.25,0,0,1,12.05,12.29h0C408.44,273.88,403,278.75,396.39,278.75Z" style="fill:#e0e0e0"></path><g style="clip-path:url(#freepik--clip-path--inject-2)"><path d="M388.92,278.75H257.19a11.93,11.93,0,0,1-11.93-11.93h0a11.94,11.94,0,0,1,11.93-11.94H388.92a11.94,11.94,0,0,1,11.94,11.94h0A11.93,11.93,0,0,1,388.92,278.75Z" style="fill:#FF725E"></path><g style="opacity:0.2"><polygon points="261.75 254.88 276.33 278.75 286.64 278.75 271.48 254.88 261.75 254.88" style="fill:#fff"></polygon></g><g style="opacity:0.2"><polygon points="239.69 254.88 254.27 278.75 264.58 278.75 249.42 254.88 239.69 254.88" style="fill:#fff"></polygon></g><g style="opacity:0.2"><polygon points="283.09 254.88 297.66 278.75 307.98 278.75 292.82 254.88 283.09 254.88" style="fill:#fff"></polygon></g><g style="opacity:0.2"><polygon points="304.43 254.88 319 278.75 329.32 278.75 314.16 254.88 304.43 254.88" style="fill:#fff"></polygon></g><g style="opacity:0.2"><polygon points="325.76 254.88 340.34 278.75 350.65 278.75 335.49 254.88 325.76 254.88" style="fill:#fff"></polygon></g><g style="opacity:0.2"><polygon points="347.1 254.88 361.67 278.75 371.99 278.75 356.83 254.88 347.1 254.88" style="fill:#fff"></polygon></g><g style="opacity:0.2"><polygon points="368.44 254.88 383.01 278.75 393.33 278.75 378.17 254.88 368.44 254.88" style="fill:#fff"></polygon></g><g style="opacity:0.2"><polygon points="389.77 254.88 404.35 278.75 414.66 278.75 399.5 254.88 389.77 254.88" style="fill:#fff"></polygon></g></g><path d="M326.71,301.62c2.53,0,4,1.26,4,3.44s-1.45,3.6-4,3.6h-2.32v3h-1.7V301.62Zm-2.32,5.52h2.25c1.55,0,2.43-.67,2.43-2s-.88-2-2.43-2h-2.25Z" style="fill:#FF725E"></path><path d="M332.64,311.7V301h1.66V311.7Z" style="fill:#FF725E"></path><path d="M343.84,308.5h-5.78a2.32,2.32,0,0,0,2.37,1.92,3,3,0,0,0,2.16-.9l.88.94a4.18,4.18,0,0,1-3.17,1.29,3.67,3.67,0,0,1-3.91-3.87,3.72,3.72,0,0,1,3.87-3.9C343,304,344,305.74,343.84,308.5Zm-1.44-1.21a2,2,0,0,0-2.13-2,2.17,2.17,0,0,0-2.24,2Z" style="fill:#FF725E"></path><path d="M350.45,310.76a3.09,3.09,0,0,1-2.53,1,2.42,2.42,0,0,1-2.69-2.38c0-1.39,1-2.28,2.89-2.3h2.31v-.23c0-1-.61-1.54-1.82-1.54a4,4,0,0,0-2.26.78l-.68-1.15a5.57,5.57,0,0,1,3.3-1c2,0,3.08,1,3.09,2.69v5h-1.62Zm0-1.75v-.71h-2.07c-1.08,0-1.58.29-1.58,1s.56,1.14,1.48,1.14C349.44,310.46,350.35,309.84,350.43,309Z" style="fill:#FF725E"></path><path d="M359.55,304.75l-.61,1.22a4.44,4.44,0,0,0-2.2-.68c-.64,0-1.12.22-1.12.77,0,1.41,4.07.64,4.06,3.42,0,1.57-1.4,2.27-2.94,2.27a4.76,4.76,0,0,1-3.08-1.06l.59-1.18a4.2,4.2,0,0,0,2.56.95c.71,0,1.26-.25,1.26-.82,0-1.57-4-.69-4-3.46,0-1.55,1.35-2.21,2.82-2.21A4.83,4.83,0,0,1,359.55,304.75Z" style="fill:#FF725E"></path><path d="M368.37,308.5h-5.78a2.33,2.33,0,0,0,2.37,1.92,3,3,0,0,0,2.16-.9l.88.94a4.17,4.17,0,0,1-3.17,1.29,3.67,3.67,0,0,1-3.91-3.87,3.73,3.73,0,0,1,3.87-3.9C367.48,304,368.57,305.74,368.37,308.5Zm-1.44-1.21a2,2,0,0,0-2.12-2,2.18,2.18,0,0,0-2.25,2Z" style="fill:#FF725E"></path><path d="M383.12,311.7l-2.39-7.86-2.42,7.86h-1.76l-3.33-10.08H375l2.45,8.19,2.43-8.17,1.67,0,2.45,8.19,2.43-8.19h1.75l-3.36,10.08Z" style="fill:#FF725E"></path><path d="M393.51,310.76a3.08,3.08,0,0,1-2.53,1,2.42,2.42,0,0,1-2.69-2.38c0-1.39,1-2.28,2.89-2.3h2.32v-.23c0-1-.62-1.54-1.83-1.54a4,4,0,0,0-2.26.78l-.68-1.15a5.6,5.6,0,0,1,3.3-1c2,0,3.08,1,3.09,2.69l0,5h-1.63Zm0-1.75v-.71h-2.07c-1.08,0-1.59.29-1.59,1s.56,1.14,1.48,1.14C392.5,310.46,393.41,309.84,393.5,309Z" style="fill:#FF725E"></path><path d="M399.43,301.85a1,1,0,1,1-1-1A1,1,0,0,1,399.43,301.85Zm-1.78,9.85V304h1.64v7.66Z" style="fill:#FF725E"></path><path d="M406.36,311.21a3.7,3.7,0,0,1-1.89.56,2,2,0,0,1-2.14-2.23v-4h-1.08v-1.24h1.08v-2.1H404v2.1h2.26v1.24H404v3.67c0,.79.3,1,.82,1a2.64,2.64,0,0,0,1.15-.33Z" style="fill:#FF725E"></path><path d="M415.31,301a12.27,12.27,0,0,0,0,12.46h-1.5a12,12,0,0,1,0-12.46Z" style="fill:#FF725E"></path><path d="M421.07,307.71v-2.39h1.58v2.39h1.47v1.51h-1.47v2.48h-1.58v-2.48h-4.81V308l3.44-6.34h1.64l-3.26,6.09Z" style="fill:#FF725E"></path><path d="M427.45,303.15v2.17h1.38c2.19,0,3.6,1.29,3.6,3.06,0,2.05-1.47,3.38-3.73,3.38a6.7,6.7,0,0,1-3.58-1.15l.67-1.38a4.4,4.4,0,0,0,2.72,1.07c1.31,0,2.1-.68,2.1-1.82s-.79-1.65-2.08-1.65c-.61,0-2,.06-2.65.13v-5.33H432v1.53Z" style="fill:#FF725E"></path><path d="M439.21,304.59c0,1.88-1,3-2.66,3s-2.66-1.14-2.66-3,1-3,2.66-3S439.21,302.72,439.21,304.59Zm-4.22,0c0,1.29.56,2,1.56,2s1.57-.75,1.57-2-.58-2-1.57-2S435,303.31,435,304.59Zm8.21-3h1.58l-7.4,10.08h-1.59Zm3.59,7.1c0,1.88-1,3-2.66,3s-2.66-1.13-2.66-3,1-3,2.66-3S446.79,306.85,446.79,308.72Zm-4.21,0c0,1.29.56,2,1.55,2s1.57-.74,1.57-2-.58-2-1.57-2S442.58,307.44,442.58,308.72Z" style="fill:#FF725E"></path><path d="M450.85,301a12,12,0,0,1,0,12.46h-1.5a12.27,12.27,0,0,0,0-12.46Z" style="fill:#FF725E"></path><path d="M343.71,226.64h1.68v10.27h6.35v1.46h-8Z"></path><path d="M352.49,232.5a6.24,6.24,0,1,1,6.25,6A6,6,0,0,1,352.49,232.5Zm10.79,0a4.56,4.56,0,1,0-4.54,4.51A4.4,4.4,0,0,0,363.28,232.5Z"></path><path d="M374.83,235.43h-6.24l-1.29,2.94h-1.72l5.31-11.73h1.66l5.33,11.73h-1.76Zm-.59-1.34-2.53-5.74-2.53,5.74Z"></path><path d="M379.62,226.64h4.94c3.77,0,6.33,2.38,6.33,5.86s-2.56,5.87-6.33,5.87h-4.94Zm4.84,10.27c2.9,0,4.76-1.78,4.76-4.41s-1.86-4.4-4.76-4.4h-3.17v8.81Z"></path><path d="M393.46,226.64h1.67v11.73h-1.67Z"></path><path d="M408.74,226.64v11.73h-1.38l-7-8.75v8.75h-1.68V226.64H400l7,8.74v-8.74Z"></path><path d="M420.38,232.44H422V237a6.92,6.92,0,0,1-4.44,1.49,6,6,0,1,1,0-12,5.88,5.88,0,0,1,4.51,1.81l-1,1a4.64,4.64,0,0,0-3.4-1.35,4.51,4.51,0,1,0,0,9,5,5,0,0,0,2.75-.75Z"></path><path d="M424.37,237.31a1.12,1.12,0,0,1,1.14-1.14,1.1,1.1,0,0,1,1.1,1.14,1.12,1.12,0,0,1-1.1,1.16A1.14,1.14,0,0,1,424.37,237.31Z"></path><path d="M428.17,237.31a1.12,1.12,0,0,1,1.14-1.14,1.11,1.11,0,0,1,1.11,1.14,1.13,1.13,0,0,1-1.11,1.16A1.14,1.14,0,0,1,428.17,237.31Z"></path><path d="M432,237.31a1.12,1.12,0,0,1,1.14-1.14,1.1,1.1,0,0,1,1.11,1.14,1.12,1.12,0,0,1-1.11,1.16A1.14,1.14,0,0,1,432,237.31Z"></path></g><g id="freepik--Character--inject-2"><polygon points="306.04 428.53 343.6 428.13 340.63 414.69 307.06 412.2 306.04 428.53" style="fill:#b78876"></polygon><path d="M325,411.75l17.4,1.14s7-17.3,10.24-17.4l-1,33.81-27.18-.67Z" style="fill:#FF725E"></path><path d="M340.62,423.3a1.38,1.38,0,0,0,1.55,1,1.32,1.32,0,0,0,1-1.52,1.44,1.44,0,0,0-1.64-1,1.37,1.37,0,0,0-.87,1.7" style="fill:#e0e0e0"></path><path d="M351.63,429.3l-2.74-.17,2-32.36s.7-1.48,1.76-1.28Z" style="fill:#e0e0e0"></path><path d="M342.24,412.34c.17,0,.22.83.72,1.66s1.19,1.28,1.12,1.43-1-.12-1.61-1.13S342.09,412.3,342.24,412.34Z" style="fill:#263238"></path><path d="M343.81,408.83c.16,0,.42.69,1.1,1.27s1.42.77,1.41.93-.95.25-1.78-.49S343.66,408.83,343.81,408.83Z" style="fill:#263238"></path><path d="M348.12,406.94c0,.16-.8.36-1.7-.09s-1.22-1.23-1.08-1.3.6.43,1.34.79S348.11,406.78,348.12,406.94Z" style="fill:#263238"></path><path d="M338.25,412.52c.14.07-.11.82-.07,1.75s.31,1.68.16,1.76-.71-.64-.73-1.74S338.12,412.43,338.25,412.52Z" style="fill:#263238"></path><path d="M334.73,412.35a3.16,3.16,0,0,1-.06,1.69,7.42,7.42,0,0,1-.59,1.76,10.62,10.62,0,0,1-.55,1,1.94,1.94,0,0,1-.41.49.72.72,0,0,1-.88.05.9.9,0,0,1-.36-.73,2.22,2.22,0,0,1,.11-.63,5.77,5.77,0,0,1,.39-1,5.94,5.94,0,0,1,1.07-1.54c.75-.76,1.38-1,1.41-.95s-.48.44-1.1,1.22a6.67,6.67,0,0,0-.9,1.49,6.76,6.76,0,0,0-.33,1c-.1.36-.11.66,0,.76s.09,0,.19,0a2.07,2.07,0,0,0,.31-.37,8.22,8.22,0,0,0,.53-.88,9.43,9.43,0,0,0,.68-1.62A11.71,11.71,0,0,1,334.73,412.35Z" style="fill:#263238"></path><path d="M335,412.57a2.68,2.68,0,0,1-1.65.4,5.39,5.39,0,0,1-1.84-.29,5.1,5.1,0,0,1-1-.46,1.38,1.38,0,0,1-.82-1.1.81.81,0,0,1,.49-.7,2.29,2.29,0,0,1,.63-.15,3.85,3.85,0,0,1,2.87.81c.85.68,1,1.38,1,1.39s-.38-.53-1.21-1.06a3.89,3.89,0,0,0-1.58-.59,3.51,3.51,0,0,0-1,0c-.37,0-.66.16-.63.3s.26.46.54.61a5.07,5.07,0,0,0,.91.44,6.07,6.07,0,0,0,1.68.38C334.32,412.64,334.94,412.48,335,412.57Z" style="fill:#263238"></path><path d="M72.52,418l-2.87,11-32.2-.29s4.41-3.33,20.58-3.09L59.6,418Z" style="fill:#b78876"></path><path d="M105.48,269a31.67,31.67,0,0,1-2.31-5.67,10.44,10.44,0,0,1,0-6,6.34,6.34,0,0,1,4.22-4.12c1.22-.3,2.55-.16,3.71-.66,1.35-.57,2.2-1.88,3.21-2.93a10.66,10.66,0,0,1,6-3.09,6.29,6.29,0,0,1,3.52.32,3.57,3.57,0,0,1,2.16,2.68,17,17,0,0,1,4.23-1.25,5.74,5.74,0,0,1,4.19,1,3.47,3.47,0,0,1,1.15,3.95,2.81,2.81,0,0,1,3.68.84,3.61,3.61,0,0,1,0,3.93,6.79,6.79,0,0,1-3.93,2.54,9.92,9.92,0,0,1-4.3.1" style="fill:#263238"></path><path d="M121.39,312.42h0a10.58,10.58,0,0,0,9.22-11.73c-.38-3.23-.71-5.92-.71-5.92s8.14-1.7,7.82-9.91-2.69-27-2.69-27h0a28.57,28.57,0,0,0-28.48,5.05l-1.17,1L109.57,303A10.58,10.58,0,0,0,121.39,312.42Z" style="fill:#b78876"></path><path d="M129.9,294.65a19.14,19.14,0,0,1-10.85-2.5s2.83,5.78,11,4.62Z" style="fill:#aa6550"></path><path d="M106.83,272.38c-.15-.05-5.73-1.38-5.26,4.22s6,4,6,3.82S106.83,272.38,106.83,272.38Z" style="fill:#b78876"></path><path d="M105.67,278.44s-.09.08-.25.17a1,1,0,0,1-.73.07,2.41,2.41,0,0,1-1.3-2.07,3.28,3.28,0,0,1,.16-1.42,1.14,1.14,0,0,1,.67-.81.51.51,0,0,1,.6.22c.09.15.06.26.09.27s.12-.1,0-.33a.59.59,0,0,0-.25-.33.72.72,0,0,0-.55-.1,1.37,1.37,0,0,0-1,.95,3.44,3.44,0,0,0-.21,1.59,2.54,2.54,0,0,0,1.63,2.3,1,1,0,0,0,.88-.22C105.67,278.58,105.69,278.45,105.67,278.44Z" style="fill:#aa6550"></path><path d="M133.14,271.42a1.19,1.19,0,0,1-1.07,1.24,1.13,1.13,0,0,1-1.26-1,1.17,1.17,0,0,1,1.07-1.24A1.12,1.12,0,0,1,133.14,271.42Z" style="fill:#263238"></path><path d="M134.06,269.5c-.13.16-1.06-.45-2.32-.38s-2.15.74-2.29.59.06-.34.45-.66a3.24,3.24,0,0,1,1.83-.67,3.09,3.09,0,0,1,1.85.5C134,269.16,134.13,269.43,134.06,269.5Z" style="fill:#263238"></path><path d="M121.13,272a1.19,1.19,0,0,1-1.07,1.24,1.13,1.13,0,0,1-1.26-1,1.16,1.16,0,0,1,1.07-1.24A1.13,1.13,0,0,1,121.13,272Z" style="fill:#263238"></path><path d="M121.68,270.37c-.14.16-1.06-.46-2.32-.39s-2.16.75-2.3.6.06-.35.45-.66a3.2,3.2,0,0,1,1.83-.67,3.05,3.05,0,0,1,1.86.5C121.6,270,121.75,270.29,121.68,270.37Z" style="fill:#263238"></path><path d="M126.73,279.49a7.89,7.89,0,0,1,2-.48c.32-.05.62-.13.66-.35a1.53,1.53,0,0,0-.26-.94c-.34-.77-.7-1.57-1.08-2.41a41.46,41.46,0,0,1-2.46-6.3,42,42,0,0,1,3,6.09l1,2.42a1.87,1.87,0,0,1,.23,1.26.78.78,0,0,1-.5.49,2.07,2.07,0,0,1-.54.11A8.63,8.63,0,0,1,126.73,279.49Z" style="fill:#263238"></path><path d="M123.06,280.55c.21,0,.28,1.34,1.5,2.26s2.67.68,2.69.87-.31.29-.93.33a3.35,3.35,0,0,1-2.24-.65,3,3,0,0,1-1.17-1.9C122.83,280.89,123,280.54,123.06,280.55Z" style="fill:#263238"></path><path d="M133.49,267.3c-.21.3-1.09.05-2.14.09s-1.92.29-2.14,0c-.1-.14,0-.44.4-.73a2.94,2.94,0,0,1,1.71-.55,2.9,2.9,0,0,1,1.74.49C133.44,266.87,133.58,267.16,133.49,267.3Z" style="fill:#263238"></path><path d="M119.81,265.89c-.14.16-.46.12-.89.05a9.75,9.75,0,0,0-1.57-.12,9.2,9.2,0,0,0-1.56.18c-.42.08-.74.13-.88,0s0-.51.39-.9a3.14,3.14,0,0,1,2-.73,3.19,3.19,0,0,1,2,.66C119.82,265.38,119.93,265.74,119.81,265.89Z" style="fill:#263238"></path><path d="M135.57,260.38a19.37,19.37,0,0,1-12,0c-4.33-1.4-9.17-1.67-10.09-.7s-.49,5.15-4.3,7c0,0,1.49,7.88-1.71,8.08s-3.1-12.37-3.1-12.37l7.15-4.95,8.18-2.87,7.89-1.21,7.69,1.14Z" style="fill:#263238"></path><path d="M147.62,311.53l24.64,23.06,39-26.62,12.18,14-37.46,30a21.84,21.84,0,0,1-13.59,5.52h0a21.81,21.81,0,0,1-17.88-8.05l-13.2-11.14Z" style="fill:#FF725E"></path><path d="M124.73,301.62l22.89,9.91-.76,6.34,10.65,42.24,11.58,8.45-9.59,14.09a26.35,26.35,0,0,1-8.27,7.77L128.4,404a9,9,0,0,1-11.31-4.8L96.9,353.39,76.61,416.32a8.78,8.78,0,0,1-9.61,6l-8-1.17a4.65,4.65,0,0,1-3.83-5.75l22.69-88.22a42.78,42.78,0,0,1,5.76-12.88,27.37,27.37,0,0,1,22.06-12.12Z" style="fill:#FF725E"></path><path d="M132.75,302.28l-.85-4.59-24.26-1.63,0,6.1c.17,1.74,3,1.22,5.64,2.31l11.88,2.37C128.06,307.07,134.24,306,132.75,302.28Z" style="fill:#FF725E"></path><path d="M157.75,360.31a11,11,0,0,1-.63-1.61c-.37-1-.88-2.56-1.49-4.46-1.21-3.78-2.77-9-4.27-14.9s-2.68-11.24-3.44-15.13c-.38-1.95-.66-3.53-.84-4.63a9.53,9.53,0,0,1-.22-1.71,12.21,12.21,0,0,1,.42,1.67c.26,1.17.6,2.72,1,4.59.85,3.88,2.08,9.22,3.58,15.08s3,11.12,4.13,14.93c.54,1.84,1,3.35,1.33,4.5A11.72,11.72,0,0,1,157.75,360.31Z" style="fill:#263238"></path><path d="M104.23,332.52a20.6,20.6,0,0,1-1,3.15c-.72,2.06-1.62,4.65-2.62,7.5s-1.9,5.44-2.62,7.5a25,25,0,0,1-1.15,3.09,17.61,17.61,0,0,1,.8-3.2c.58-2,1.45-4.63,2.48-7.56s2-5.56,2.76-7.46A19.56,19.56,0,0,1,104.23,332.52Z" style="fill:#263238"></path><g style="opacity:0.2"><path d="M96.82,353.49q2.93,6.63,5.83,13.26a6.71,6.71,0,0,0,1.17,2,2.32,2.32,0,0,0,2.11.78c1.44-.33,1.8-2.18,1.85-3.65.34-9.67,0-19.57-3.37-28.65-.24-.66-.69-1.44-1.39-1.35s-.92.8-1.09,1.4l-4.74,17"></path></g><g style="opacity:0.2"><path d="M159.77,354.4a2.53,2.53,0,0,0,1.19-2.3,7.07,7.07,0,0,0-.72-2.61,67.05,67.05,0,0,0-10.57-17.05l4.79,17Z"></path></g><path d="M84.07,346.78c-.06,0,.18-5.78.54-12.91s.68-12.9.74-12.9-.18,5.79-.53,12.91S84.13,346.79,84.07,346.78Z" style="fill:#e0e0e0"></path><path d="M88.57,326.74a1.39,1.39,0,0,1,.06.47,11.66,11.66,0,0,1,0,1.31,15,15,0,0,1-2.87,8.05,10.58,10.58,0,0,1-.83,1,2.24,2.24,0,0,1-.34.33s.43-.53,1-1.43a16.63,16.63,0,0,0,2.85-8C88.57,327.42,88.54,326.74,88.57,326.74Z" style="fill:#e0e0e0"></path><path d="M80.39,327.54s.09.6.27,1.54a17.41,17.41,0,0,0,1.14,3.59,16.62,16.62,0,0,0,1.92,3.22c.59.77,1,1.2,1,1.23a1.82,1.82,0,0,1-.32-.28,9.73,9.73,0,0,1-.77-.86,14.51,14.51,0,0,1-2-3.23,14.26,14.26,0,0,1-1.09-3.64,9.41,9.41,0,0,1-.13-1.14A2.35,2.35,0,0,1,80.39,327.54Z" style="fill:#e0e0e0"></path><path d="M87.54,323.32a1.59,1.59,0,0,1,0,.38,8,8,0,0,1,0,1A16.24,16.24,0,0,1,86.9,328a16,16,0,0,1-1.3,3.12,8.57,8.57,0,0,1-.52.88,1.48,1.48,0,0,1-.23.3s.24-.48.62-1.25A20.34,20.34,0,0,0,86.7,328a21.63,21.63,0,0,0,.68-3.28A13.26,13.26,0,0,1,87.54,323.32Z" style="fill:#e0e0e0"></path><path d="M82.26,324s0,.61,0,1.6a18.86,18.86,0,0,0,.48,3.8A19.23,19.23,0,0,0,84,333c.42.89.73,1.42.7,1.44a2.44,2.44,0,0,1-.25-.35c-.15-.24-.35-.58-.58-1a16.62,16.62,0,0,1-1.32-3.64,16.79,16.79,0,0,1-.43-3.84,10.27,10.27,0,0,1,.07-1.17A1.4,1.4,0,0,1,82.26,324Z" style="fill:#e0e0e0"></path><path d="M83.93,322.11s-.09.36-.16.94a7.21,7.21,0,0,0,.12,2.25c.41,1.73,1,3.07,1,3.1a5,5,0,0,1-.43-.86,11.73,11.73,0,0,1-.73-2.2,5.94,5.94,0,0,1-.06-2.32A2.36,2.36,0,0,1,83.93,322.11Z" style="fill:#e0e0e0"></path><path d="M80.85,335.22c.06,0,.64,1.09,1.6,2.29s1.92,2,1.88,2.08a2.85,2.85,0,0,1-.67-.49A12.19,12.19,0,0,1,81.18,336,2.87,2.87,0,0,1,80.85,335.22Z" style="fill:#e0e0e0"></path><path d="M88.67,336.55a3.59,3.59,0,0,1-.51.78,19.13,19.13,0,0,1-1.47,1.72A17.08,17.08,0,0,1,85,340.57a4.15,4.15,0,0,1-.76.54,4.18,4.18,0,0,1,.67-.65c.42-.39,1-.93,1.61-1.56s1.13-1.22,1.51-1.66A4.78,4.78,0,0,1,88.67,336.55Z" style="fill:#e0e0e0"></path><path d="M67.09,411.43c-.06,0,.18-5.78.54-12.91s.68-12.9.74-12.9-.18,5.78-.54,12.91S67.15,411.43,67.09,411.43Z" style="fill:#e0e0e0"></path><path d="M71.59,391.38a1.87,1.87,0,0,1,0,.48,9.37,9.37,0,0,1,0,1.31,15,15,0,0,1-2.87,8.05,10.23,10.23,0,0,1-.83,1,2.09,2.09,0,0,1-.34.34s.43-.53,1.05-1.44a16.63,16.63,0,0,0,1.94-3.8,16.91,16.91,0,0,0,.91-4.17C71.59,392.07,71.55,391.38,71.59,391.38Z" style="fill:#e0e0e0"></path><path d="M63.41,392.19s.09.59.27,1.54a16.51,16.51,0,0,0,3.06,6.81c.59.77,1,1.2,1,1.22a1.48,1.48,0,0,1-.32-.28,8.15,8.15,0,0,1-.77-.85,14.46,14.46,0,0,1-3.09-6.87,9.53,9.53,0,0,1-.13-1.15A2.26,2.26,0,0,1,63.41,392.19Z" style="fill:#e0e0e0"></path><path d="M70.55,388s0,.13,0,.37,0,.59,0,1a16.11,16.11,0,0,1-1.92,6.44c-.21.38-.39.68-.52.88a2,2,0,0,1-.23.3s.24-.48.62-1.25a20.94,20.94,0,0,0,1.23-3.11,20,20,0,0,0,.67-3.27C70.5,388.5,70.52,388,70.55,388Z" style="fill:#e0e0e0"></path><path d="M65.28,388.66s0,.61,0,1.59a18.78,18.78,0,0,0,.48,3.8A19.36,19.36,0,0,0,67,397.68c.42.89.73,1.41.7,1.43s-.1-.11-.25-.35a8.73,8.73,0,0,1-.58-1,16.12,16.12,0,0,1-1.32-3.64,16.38,16.38,0,0,1-.43-3.85,10.6,10.6,0,0,1,.07-1.17A1.37,1.37,0,0,1,65.28,388.66Z" style="fill:#e0e0e0"></path><path d="M67,386.76s-.09.35-.16.93a7,7,0,0,0,.12,2.26c.4,1.73,1,3.06,1,3.09a3.93,3.93,0,0,1-.43-.85,12,12,0,0,1-.73-2.2,6.17,6.17,0,0,1-.07-2.32A2.26,2.26,0,0,1,67,386.76Z" style="fill:#e0e0e0"></path><path d="M63.87,399.86c.05,0,.64,1.09,1.6,2.3s1.92,2,1.88,2.08a2.75,2.75,0,0,1-.67-.5,11.7,11.7,0,0,1-1.37-1.45,11.11,11.11,0,0,1-1.11-1.67A2.4,2.4,0,0,1,63.87,399.86Z" style="fill:#e0e0e0"></path><path d="M71.69,401.19a4,4,0,0,1-.51.79,19.45,19.45,0,0,1-1.47,1.71A16.13,16.13,0,0,1,68,405.22a3.28,3.28,0,0,1-.76.53,4.46,4.46,0,0,1,.67-.64c.42-.39,1-.93,1.61-1.56s1.13-1.23,1.5-1.66A4.92,4.92,0,0,1,71.69,401.19Z" style="fill:#e0e0e0"></path><path d="M104.09,328.5c-.06,0,.18-5.78.53-12.91s.69-12.9.75-12.9-.19,5.78-.54,12.91S104.15,328.5,104.09,328.5Z" style="fill:#e0e0e0"></path><path d="M108.59,308.45a2.7,2.7,0,0,1,0,.48,9.37,9.37,0,0,1,0,1.31,15,15,0,0,1-2.87,8.05,11.9,11.9,0,0,1-.83,1,2.09,2.09,0,0,1-.34.34s.43-.53,1.05-1.44a16.49,16.49,0,0,0,2.84-8C108.58,309.13,108.55,308.45,108.59,308.45Z" style="fill:#e0e0e0"></path><path d="M100.41,309.26s.08.59.27,1.54a16.48,16.48,0,0,0,1.13,3.58,17,17,0,0,0,1.93,3.23c.59.76,1,1.2,1,1.22a1.62,1.62,0,0,1-.31-.28,10.72,10.72,0,0,1-.78-.85,14.52,14.52,0,0,1-2-3.23,14.88,14.88,0,0,1-1.1-3.64c-.07-.49-.11-.88-.12-1.15A1.14,1.14,0,0,1,100.41,309.26Z" style="fill:#e0e0e0"></path><path d="M107.55,305s0,.13,0,.37,0,.59,0,1a16.55,16.55,0,0,1-.63,3.32,15.65,15.65,0,0,1-1.29,3.12c-.21.38-.39.68-.53.88s-.21.3-.22.29.24-.47.62-1.24a20,20,0,0,0,1.22-3.11,19.14,19.14,0,0,0,.68-3.27C107.5,305.57,107.52,305,107.55,305Z" style="fill:#e0e0e0"></path><path d="M102.27,305.72s0,.62,0,1.6a18.86,18.86,0,0,0,.48,3.8,18.55,18.55,0,0,0,1.25,3.62c.41.9.73,1.42.69,1.44a1.86,1.86,0,0,1-.25-.35,10.8,10.8,0,0,1-.57-1,15.65,15.65,0,0,1-1.32-3.64,15.86,15.86,0,0,1-.43-3.85c0-.49,0-.89.06-1.17A3.15,3.15,0,0,1,102.27,305.72Z" style="fill:#e0e0e0"></path><path d="M104,303.83s-.09.35-.16.93a7,7,0,0,0,.12,2.26c.4,1.73,1,3.06,1,3.09a3.45,3.45,0,0,1-.43-.85,11.5,11.5,0,0,1-.73-2.2,6.17,6.17,0,0,1-.07-2.32A2.26,2.26,0,0,1,104,303.83Z" style="fill:#e0e0e0"></path><path d="M100.87,316.93s.63,1.09,1.6,2.3,1.92,2,1.88,2.08a2.75,2.75,0,0,1-.67-.5,11.75,11.75,0,0,1-2.48-3.12A2.5,2.5,0,0,1,100.87,316.93Z" style="fill:#e0e0e0"></path><path d="M108.69,318.26a4,4,0,0,1-.51.79,19.45,19.45,0,0,1-1.47,1.71,18.48,18.48,0,0,1-1.67,1.53,3.35,3.35,0,0,1-.77.53,5.34,5.34,0,0,1,.68-.65c.42-.38,1-.92,1.61-1.55s1.13-1.23,1.5-1.67A4.45,4.45,0,0,1,108.69,318.26Z" style="fill:#e0e0e0"></path><path d="M125.77,323.86c-.06,0,.18-5.79.53-12.91s.69-12.9.74-12.9-.18,5.78-.53,12.91S125.82,323.86,125.77,323.86Z" style="fill:#e0e0e0"></path><path d="M130.27,303.81a2.7,2.7,0,0,1,0,.48c0,.31,0,.76,0,1.31a15.26,15.26,0,0,1-2.87,8,11.9,11.9,0,0,1-.83,1c-.21.23-.33.35-.35.34s.43-.53,1.06-1.44a16.49,16.49,0,0,0,2.84-8C130.26,304.49,130.23,303.81,130.27,303.81Z" style="fill:#e0e0e0"></path><path d="M122.09,304.62s.08.59.27,1.54a16.48,16.48,0,0,0,1.13,3.58,17,17,0,0,0,1.93,3.23c.58.76,1,1.2,1,1.22a1.82,1.82,0,0,1-.32-.28c-.19-.19-.46-.48-.77-.85a15.14,15.14,0,0,1-2-3.23,14.8,14.8,0,0,1-1.09-3.64c-.07-.49-.12-.88-.13-1.15A1.25,1.25,0,0,1,122.09,304.62Z" style="fill:#e0e0e0"></path><path d="M129.23,300.4a1.82,1.82,0,0,1,0,.37c0,.24,0,.59,0,1a16.55,16.55,0,0,1-.63,3.32,16.93,16.93,0,0,1-1.29,3.12,8.67,8.67,0,0,1-.53.87c-.13.21-.21.31-.23.3s.25-.47.63-1.24a19.81,19.81,0,0,0,1.9-6.38C129.17,300.93,129.2,300.39,129.23,300.4Z" style="fill:#e0e0e0"></path><path d="M124,301.08s0,.62,0,1.6a19.73,19.73,0,0,0,.49,3.8,18.55,18.55,0,0,0,1.25,3.62c.41.9.72,1.42.69,1.44a1.86,1.86,0,0,1-.25-.35c-.15-.23-.35-.58-.58-1a16.62,16.62,0,0,1-1.32-3.64,16.29,16.29,0,0,1-.42-3.85,11,11,0,0,1,.06-1.17A1.93,1.93,0,0,1,124,301.08Z" style="fill:#e0e0e0"></path><path d="M125.63,299.19s-.09.35-.17.93a7,7,0,0,0,.13,2.26c.4,1.73,1,3.06,1,3.09a4.58,4.58,0,0,1-.43-.85,12.25,12.25,0,0,1-.73-2.2,5.94,5.94,0,0,1-.06-2.32A2.26,2.26,0,0,1,125.63,299.19Z" style="fill:#e0e0e0"></path><path d="M122.54,312.29c.06,0,.64,1.09,1.61,2.3s1.91,2,1.87,2.08a2.84,2.84,0,0,1-.66-.5,11.65,11.65,0,0,1-1.38-1.45,12.36,12.36,0,0,1-1.1-1.67A2.74,2.74,0,0,1,122.54,312.29Z" style="fill:#e0e0e0"></path><path d="M130.36,313.62a3.09,3.09,0,0,1-.51.79,17.58,17.58,0,0,1-1.46,1.71,18.48,18.48,0,0,1-1.67,1.53,3.35,3.35,0,0,1-.77.53,5.62,5.62,0,0,1,.67-.65c.43-.38,1-.92,1.62-1.55s1.13-1.23,1.5-1.67A5.61,5.61,0,0,1,130.36,313.62Z" style="fill:#e0e0e0"></path><path d="M134.68,344.1c-.06,0,.18-5.79.53-12.91s.69-12.9.75-12.9-.18,5.78-.54,12.91S134.74,344.1,134.68,344.1Z" style="fill:#e0e0e0"></path><path d="M139.18,324.05a1.87,1.87,0,0,1,0,.48,9.37,9.37,0,0,1,0,1.31,15,15,0,0,1-2.87,8.05,11.9,11.9,0,0,1-.83,1,2.09,2.09,0,0,1-.34.34s.43-.53,1.05-1.44a16.49,16.49,0,0,0,2.84-8C139.18,324.73,139.14,324.05,139.18,324.05Z" style="fill:#e0e0e0"></path><path d="M131,324.86s.08.59.27,1.54a16,16,0,0,0,1.14,3.58,16.54,16.54,0,0,0,1.92,3.23c.59.76,1,1.2,1,1.22a1.48,1.48,0,0,1-.32-.28c-.2-.19-.46-.48-.78-.85a14.52,14.52,0,0,1-2-3.23,14.88,14.88,0,0,1-1.1-3.64c-.07-.49-.11-.88-.12-1.15A2.26,2.26,0,0,1,131,324.86Z" style="fill:#e0e0e0"></path><path d="M138.14,320.64s0,.13,0,.37,0,.59,0,1a17.17,17.17,0,0,1-.62,3.32,16.22,16.22,0,0,1-1.3,3.12c-.21.38-.39.68-.52.87s-.22.31-.23.3.24-.47.62-1.24a20.94,20.94,0,0,0,1.23-3.11A20,20,0,0,0,138,322C138.09,321.17,138.11,320.63,138.14,320.64Z" style="fill:#e0e0e0"></path><path d="M132.86,321.32s0,.62,0,1.6a18.86,18.86,0,0,0,.48,3.8,19.23,19.23,0,0,0,1.25,3.62c.42.9.73,1.42.7,1.44s-.11-.12-.25-.35a8.73,8.73,0,0,1-.58-1,16.12,16.12,0,0,1-1.32-3.64,15.86,15.86,0,0,1-.43-3.85,10.6,10.6,0,0,1,.07-1.17A2.55,2.55,0,0,1,132.86,321.32Z" style="fill:#e0e0e0"></path><path d="M134.54,319.43s-.09.35-.16.93a7,7,0,0,0,.12,2.26c.4,1.73,1,3.06,1,3.09a3.93,3.93,0,0,1-.43-.85,12.25,12.25,0,0,1-.73-2.2,6.17,6.17,0,0,1-.07-2.32A2.26,2.26,0,0,1,134.54,319.43Z" style="fill:#e0e0e0"></path><path d="M131.46,332.53s.63,1.09,1.6,2.3,1.92,2,1.88,2.08a2.75,2.75,0,0,1-.67-.5A12.47,12.47,0,0,1,132.9,335a11.64,11.64,0,0,1-1.11-1.67A2.5,2.5,0,0,1,131.46,332.53Z" style="fill:#e0e0e0"></path><path d="M139.28,333.86a4,4,0,0,1-.51.79,19.45,19.45,0,0,1-1.47,1.71,18.48,18.48,0,0,1-1.67,1.53,3.35,3.35,0,0,1-.77.53,6.39,6.39,0,0,1,.68-.65c.42-.38,1-.92,1.61-1.55s1.13-1.23,1.5-1.67A5.14,5.14,0,0,1,139.28,333.86Z" style="fill:#e0e0e0"></path><path d="M165.61,352.12c-.06,0-1.89-5.47-4.09-12.26s-3.94-12.3-3.89-12.32,1.88,5.47,4.09,12.26S165.66,352.1,165.61,352.12Z" style="fill:#e0e0e0"></path><path d="M162.69,331.78a2.36,2.36,0,0,1,.22.43,11.78,11.78,0,0,1,.46,1.22,15.05,15.05,0,0,1,.71,4.26,15.31,15.31,0,0,1-.53,4.29,11.92,11.92,0,0,1-.41,1.24,3,3,0,0,1-.2.44s.21-.65.47-1.72a17,17,0,0,0,.46-4.24,16.7,16.7,0,0,0-.64-4.22C162.93,332.42,162.66,331.79,162.69,331.78Z" style="fill:#e0e0e0"></path><path d="M155.33,335.44s.29.53.8,1.35a16.83,16.83,0,0,0,2.34,2.94,16.26,16.26,0,0,0,2.94,2.33c.82.51,1.36.77,1.35.8a1.7,1.7,0,0,1-.4-.15,9,9,0,0,1-1-.52,14.73,14.73,0,0,1-3-2.31,14.47,14.47,0,0,1-2.32-3,11.11,11.11,0,0,1-.52-1A1.7,1.7,0,0,1,155.33,335.44Z" style="fill:#e0e0e0"></path><path d="M160.51,329a1.19,1.19,0,0,1,.16.34,10,10,0,0,1,.32,1,16,16,0,0,1,.6,3.32,16.79,16.79,0,0,1-.1,3.37c-.06.43-.13.78-.18,1a1.62,1.62,0,0,1-.11.36s.06-.53.14-1.38a21.15,21.15,0,0,0,0-3.35,20,20,0,0,0-.53-3.29C160.64,329.47,160.48,329,160.51,329Z" style="fill:#e0e0e0"></path><path d="M155.82,331.48s.21.57.58,1.48a18.42,18.42,0,0,0,4.26,6.33c.7.68,1.18,1.06,1.16,1.09a1.46,1.46,0,0,1-.36-.24,9.12,9.12,0,0,1-.91-.75,16.48,16.48,0,0,1-4.29-6.37c-.17-.47-.29-.85-.36-1.12A1.66,1.66,0,0,1,155.82,331.48Z" style="fill:#e0e0e0"></path><path d="M156.71,329.11s0,.36.18.93a7,7,0,0,0,.92,2.06c1,1.48,2.06,2.5,2,2.55a3.85,3.85,0,0,1-.7-.64,12.28,12.28,0,0,1-1.47-1.8,6,6,0,0,1-.88-2.14A2.31,2.31,0,0,1,156.71,329.11Z" style="fill:#e0e0e0"></path><path d="M158.49,342.45c0-.05,1,.79,2.31,1.58s2.51,1.21,2.49,1.27a2.33,2.33,0,0,1-.79-.22,11.94,11.94,0,0,1-1.81-.87,10.9,10.9,0,0,1-1.62-1.17A2.42,2.42,0,0,1,158.49,342.45Z" style="fill:#e0e0e0"></path><path d="M166.27,340.92a4.06,4.06,0,0,1-.2.91,18.44,18.44,0,0,1-.76,2.13,16.74,16.74,0,0,1-1,2,3.32,3.32,0,0,1-.53.78,5.77,5.77,0,0,1,.4-.85c.26-.51.61-1.22,1-2s.62-1.54.81-2.08A4.17,4.17,0,0,1,166.27,340.92Z" style="fill:#e0e0e0"></path><path d="M198.64,323.86s-3.58,4.55-8.08,10.08-8.2,10-8.24,10,3.57-4.55,8.08-10.09S198.59,323.83,198.64,323.86Z" style="fill:#e0e0e0"></path><path d="M183.13,337.34a3.73,3.73,0,0,1,.24-.41,12.81,12.81,0,0,1,.78-1.06,15.19,15.19,0,0,1,7.08-4.78,11.11,11.11,0,0,1,1.27-.32,1.74,1.74,0,0,1,.48-.07s-.66.17-1.7.53a17.32,17.32,0,0,0-3.82,1.91,17,17,0,0,0-3.2,2.83C183.54,336.8,183.17,337.37,183.13,337.34Z" style="fill:#e0e0e0"></path><path d="M190.2,341.54s.29-.53.7-1.4a16.87,16.87,0,0,0,1.2-3.56,16.58,16.58,0,0,0,.37-3.74c0-1-.1-1.56-.06-1.56a2.39,2.39,0,0,1,.09.41,10.68,10.68,0,0,1,.11,1.15,14.5,14.5,0,0,1-.3,3.79A14.82,14.82,0,0,1,191,340.2a7.47,7.47,0,0,1-.58,1A1.54,1.54,0,0,1,190.2,341.54Z" style="fill:#e0e0e0"></path><path d="M182,340.71s.06-.12.2-.32a9.55,9.55,0,0,1,.64-.8,16.66,16.66,0,0,1,2.46-2.3,16.18,16.18,0,0,1,2.89-1.74,8.85,8.85,0,0,1,1-.4,1.53,1.53,0,0,1,.36-.11s-.48.24-1.24.64a19.5,19.5,0,0,0-2.83,1.78,21.27,21.27,0,0,0-2.49,2.23C182.31,340.32,182,340.73,182,340.71Z" style="fill:#e0e0e0"></path><path d="M186.61,343.28s.37-.49.93-1.29a19.35,19.35,0,0,0,1.87-3.35,18.58,18.58,0,0,0,1.13-3.66c.2-1,.26-1.57.3-1.57a2,2,0,0,1,0,.43,10.2,10.2,0,0,1-.14,1.17,16.67,16.67,0,0,1-1.09,3.71,16.34,16.34,0,0,1-1.94,3.36c-.3.39-.56.7-.75.9A1.65,1.65,0,0,1,186.61,343.28Z" style="fill:#e0e0e0"></path><path d="M184.13,343.82s.29-.23.69-.66a6.86,6.86,0,0,0,1.23-1.89c.71-1.63,1-3.08,1.07-3.06a4.61,4.61,0,0,1-.16,1,12,12,0,0,1-.72,2.2,6.06,6.06,0,0,1-1.32,1.91A2.29,2.29,0,0,1,184.13,343.82Z" style="fill:#e0e0e0"></path><path d="M194.38,335.09c-.06,0,.13-1.26.07-2.8s-.34-2.77-.28-2.79a2.78,2.78,0,0,1,.24.8,11.51,11.51,0,0,1,.25,2,11.7,11.7,0,0,1-.1,2A2.55,2.55,0,0,1,194.38,335.09Z" style="fill:#e0e0e0"></path><path d="M188.87,329.38a3.89,3.89,0,0,1,.87-.33,18.83,18.83,0,0,1,2.2-.51,19.1,19.1,0,0,1,2.25-.24,4.44,4.44,0,0,1,.94,0,4.76,4.76,0,0,1-.93.13c-.57.06-1.36.15-2.22.3s-1.64.31-2.2.45A4.51,4.51,0,0,1,188.87,329.38Z" style="fill:#e0e0e0"></path><path d="M131.46,394.59c-.06,0-.25-5.78-.44-12.91s-.28-12.92-.22-12.92.25,5.78.43,12.91S131.52,394.59,131.46,394.59Z" style="fill:#e0e0e0"></path><path d="M134.44,374.26a1.66,1.66,0,0,1,.09.48,11.32,11.32,0,0,1,.1,1.3,15.17,15.17,0,0,1-2.26,8.24c-.3.47-.56.84-.75,1.08a1.9,1.9,0,0,1-.32.36s.39-.56.94-1.51a16.37,16.37,0,0,0,1.65-3.94,17,17,0,0,0,.59-4.23C134.49,375,134.4,374.27,134.44,374.26Z" style="fill:#e0e0e0"></path><path d="M126.34,375.68s.13.59.39,1.52a16.72,16.72,0,0,0,1.4,3.49,17.22,17.22,0,0,0,2.16,3.07c.65.72,1.09,1.12,1.07,1.15a1.6,1.6,0,0,1-.34-.26,9,9,0,0,1-.83-.79,14.53,14.53,0,0,1-2.24-3.07,14.72,14.72,0,0,1-1.36-3.55,10.36,10.36,0,0,1-.21-1.14A1.88,1.88,0,0,1,126.34,375.68Z" style="fill:#e0e0e0"></path><path d="M133.15,370.94a1.28,1.28,0,0,1,.06.37c0,.24,0,.59,0,1a16.41,16.41,0,0,1-.37,3.36,15.91,15.91,0,0,1-1.06,3.2c-.18.39-.33.71-.45.92a1.11,1.11,0,0,1-.21.31s.21-.49.53-1.29a20.09,20.09,0,0,0,1-3.19,21.31,21.31,0,0,0,.43-3.31C133.13,371.47,133.12,370.94,133.15,370.94Z" style="fill:#e0e0e0"></path><path d="M127.94,372s0,.61.13,1.59a19.44,19.44,0,0,0,.77,3.76,18.75,18.75,0,0,0,1.52,3.51c.48.86.83,1.36.8,1.38a1.79,1.79,0,0,1-.28-.33c-.17-.22-.39-.55-.65-1a16.48,16.48,0,0,1-1.59-3.53,16.1,16.1,0,0,1-.71-3.81c0-.49,0-.89,0-1.17A1.84,1.84,0,0,1,127.94,372Z" style="fill:#e0e0e0"></path><path d="M129.47,370s-.07.36-.09.94a6.7,6.7,0,0,0,.29,2.24c.53,1.7,1.27,3,1.19,3a3.92,3.92,0,0,1-.5-.82,12,12,0,0,1-.89-2.14,6,6,0,0,1-.24-2.31A2.41,2.41,0,0,1,129.47,370Z" style="fill:#e0e0e0"></path><path d="M127.38,383.3c.05,0,.72,1,1.77,2.17s2.06,1.88,2,1.93a2.52,2.52,0,0,1-.7-.44,11.18,11.18,0,0,1-1.48-1.35,10,10,0,0,1-1.23-1.58A2.27,2.27,0,0,1,127.38,383.3Z" style="fill:#e0e0e0"></path><path d="M135.28,384a3.93,3.93,0,0,1-.45.82,18.94,18.94,0,0,1-2.89,3.47,3.6,3.6,0,0,1-.72.59,5.53,5.53,0,0,1,.62-.7c.39-.41.93-1,1.49-1.67s1-1.31,1.37-1.77A4,4,0,0,1,135.28,384Z" style="fill:#e0e0e0"></path><path d="M153.47,374.13c-.06,0-1.89-5.47-4.09-12.25s-3.95-12.31-3.89-12.33,1.88,5.47,4.09,12.26S153.52,374.11,153.47,374.13Z" style="fill:#e0e0e0"></path><path d="M150.55,353.79a2.93,2.93,0,0,1,.22.43,11.25,11.25,0,0,1,.46,1.23,15,15,0,0,1,.71,4.26,15.23,15.23,0,0,1-.53,4.28,10.82,10.82,0,0,1-.42,1.24c-.11.29-.18.45-.2.44s.21-.65.47-1.72a16.5,16.5,0,0,0,.47-4.24,16.77,16.77,0,0,0-.64-4.22C150.79,354.43,150.51,353.81,150.55,353.79Z" style="fill:#e0e0e0"></path><path d="M143.19,357.45s.29.53.8,1.35a16.71,16.71,0,0,0,2.33,2.94,17.23,17.23,0,0,0,3,2.34c.82.5,1.36.76,1.35.79s-.15,0-.4-.14-.6-.29-1-.53a14.71,14.71,0,0,1-3-2.31,14.45,14.45,0,0,1-2.32-3,9.91,9.91,0,0,1-.52-1C143.23,357.6,143.17,357.46,143.19,357.45Z" style="fill:#e0e0e0"></path><path d="M148.37,351a1.79,1.79,0,0,1,.15.34c.09.23.21.56.33,1a16.46,16.46,0,0,1,.49,6.7,9.51,9.51,0,0,1-.18,1,1.59,1.59,0,0,1-.1.37,11.43,11.43,0,0,1,.14-1.39,21,21,0,0,0,0-3.34,21.31,21.31,0,0,0-.53-3.3A12.07,12.07,0,0,1,148.37,351Z" style="fill:#e0e0e0"></path><path d="M143.68,353.49s.2.58.58,1.49a19,19,0,0,0,1.8,3.38,19.3,19.3,0,0,0,2.45,2.94c.71.69,1.19,1.07,1.16,1.1a2.48,2.48,0,0,1-.36-.24c-.22-.16-.53-.42-.9-.75a17.21,17.21,0,0,1-2.53-2.93,16.81,16.81,0,0,1-1.76-3.45c-.17-.47-.29-.85-.36-1.12A1.23,1.23,0,0,1,143.68,353.49Z" style="fill:#e0e0e0"></path><path d="M144.57,351.12s0,.37.18.93a6.52,6.52,0,0,0,.92,2.06c1,1.48,2.06,2.5,2,2.56A4.48,4.48,0,0,1,147,356a11.54,11.54,0,0,1-1.46-1.79,6.18,6.18,0,0,1-.89-2.15A2.41,2.41,0,0,1,144.57,351.12Z" style="fill:#e0e0e0"></path><path d="M146.34,364.47c0-.05,1,.79,2.32,1.57s2.51,1.22,2.49,1.28a3,3,0,0,1-.8-.23,11.89,11.89,0,0,1-1.8-.87,12.56,12.56,0,0,1-1.63-1.16A3.38,3.38,0,0,1,146.34,364.47Z" style="fill:#e0e0e0"></path><path d="M154.13,362.93a3.85,3.85,0,0,1-.2.91,19.38,19.38,0,0,1-1.78,4.15,4.37,4.37,0,0,1-.53.77,6,6,0,0,1,.4-.84c.26-.52.61-1.23.95-2s.62-1.55.82-2.09A4.51,4.51,0,0,1,154.13,362.93Z" style="fill:#e0e0e0"></path><path d="M85.16,382.16c-.06,0-1.89-5.47-4.09-12.25s-3.95-12.31-3.89-12.33,1.88,5.47,4.09,12.26S85.21,382.15,85.16,382.16Z" style="fill:#e0e0e0"></path><path d="M82.24,361.82a2.93,2.93,0,0,1,.22.43,11.25,11.25,0,0,1,.46,1.23,15,15,0,0,1,.71,4.26A15.23,15.23,0,0,1,83.1,372a10.82,10.82,0,0,1-.42,1.24c-.11.29-.18.45-.2.44s.22-.65.48-1.72a17,17,0,0,0,.46-4.24,16.77,16.77,0,0,0-.64-4.22C82.48,362.47,82.2,361.84,82.24,361.82Z" style="fill:#e0e0e0"></path><path d="M74.88,365.49s.29.52.8,1.34A16.71,16.71,0,0,0,78,369.77,17.23,17.23,0,0,0,81,372.11c.82.51,1.36.76,1.35.8a1.7,1.7,0,0,1-.4-.15c-.25-.11-.6-.29-1-.53a14.71,14.71,0,0,1-3-2.31,14.45,14.45,0,0,1-2.32-3,9.91,9.91,0,0,1-.52-1A2,2,0,0,1,74.88,365.49Z" style="fill:#e0e0e0"></path><path d="M80.06,359a1.47,1.47,0,0,1,.15.34c.09.23.21.56.33,1A16.46,16.46,0,0,1,81,367c-.06.43-.12.77-.18,1a1.59,1.59,0,0,1-.1.36s.06-.54.14-1.39a21,21,0,0,0,0-3.34,21.31,21.31,0,0,0-.53-3.3A12.07,12.07,0,0,1,80.06,359Z" style="fill:#e0e0e0"></path><path d="M75.37,361.52s.21.58.58,1.49a18.68,18.68,0,0,0,1.8,3.38,19.3,19.3,0,0,0,2.45,2.94c.71.69,1.19,1.07,1.16,1.1l-.35-.24a10.8,10.8,0,0,1-.91-.75,16.46,16.46,0,0,1-2.53-2.93,16.81,16.81,0,0,1-1.76-3.45c-.17-.46-.29-.85-.36-1.12A1.17,1.17,0,0,1,75.37,361.52Z" style="fill:#e0e0e0"></path><path d="M76.26,359.15s0,.37.18.93a6.66,6.66,0,0,0,.92,2.07c1,1.47,2.06,2.49,2,2.55a4.48,4.48,0,0,1-.71-.65,11.54,11.54,0,0,1-1.46-1.79,6.38,6.38,0,0,1-.89-2.15A2.41,2.41,0,0,1,76.26,359.15Z" style="fill:#e0e0e0"></path><path d="M78,372.5c0-.05,1,.79,2.32,1.57s2.51,1.22,2.49,1.28a3,3,0,0,1-.8-.23,11.89,11.89,0,0,1-1.8-.87,11.72,11.72,0,0,1-1.62-1.16A3.26,3.26,0,0,1,78,372.5Z" style="fill:#e0e0e0"></path><path d="M85.82,371a4,4,0,0,1-.2.92,20.49,20.49,0,0,1-.76,2.12,19.62,19.62,0,0,1-1,2,2.86,2.86,0,0,1-.53.77,6,6,0,0,1,.4-.84c.26-.52.61-1.23,1-2s.63-1.55.82-2.09A4.51,4.51,0,0,1,85.82,371Z" style="fill:#e0e0e0"></path><path d="M114.23,362.4c-.06,0,.18-5.79.53-12.91s.69-12.9.75-12.9-.19,5.78-.54,12.91S114.29,362.4,114.23,362.4Z" style="fill:#e0e0e0"></path><path d="M118.73,342.35a2.7,2.7,0,0,1,0,.48,9.35,9.35,0,0,1,0,1.31,15,15,0,0,1-2.87,8.05,11.9,11.9,0,0,1-.83,1,2.09,2.09,0,0,1-.34.34s.43-.54,1.05-1.44a16.49,16.49,0,0,0,2.84-8C118.72,343,118.69,342.35,118.73,342.35Z" style="fill:#e0e0e0"></path><path d="M110.55,343.16s.08.59.27,1.54a16.48,16.48,0,0,0,1.13,3.58,17,17,0,0,0,1.93,3.23c.58.76,1,1.2,1,1.22a1.62,1.62,0,0,1-.31-.28,10.72,10.72,0,0,1-.78-.85,15,15,0,0,1-2-3.24,14.55,14.55,0,0,1-1.09-3.64,11.4,11.4,0,0,1-.12-1.14A1.14,1.14,0,0,1,110.55,343.16Z" style="fill:#e0e0e0"></path><path d="M117.69,338.93s0,.14,0,.38,0,.59,0,1a16.55,16.55,0,0,1-.63,3.32,16.27,16.27,0,0,1-1.29,3.12,10,10,0,0,1-.53.87,1.3,1.3,0,0,1-.22.3s.24-.47.62-1.24a20,20,0,0,0,1.22-3.11,19.14,19.14,0,0,0,.68-3.27C117.63,339.47,117.66,338.93,117.69,338.93Z" style="fill:#e0e0e0"></path><path d="M112.41,339.62s0,.62,0,1.6a18.86,18.86,0,0,0,.48,3.8,18.55,18.55,0,0,0,1.25,3.62c.41.9.72,1.42.69,1.44a1.86,1.86,0,0,1-.25-.35,10.8,10.8,0,0,1-.57-1,16.08,16.08,0,0,1-1.33-3.64,16.29,16.29,0,0,1-.42-3.85c0-.49,0-.9.06-1.17A3.15,3.15,0,0,1,112.41,339.62Z" style="fill:#e0e0e0"></path><path d="M114.09,337.73s-.09.35-.16.93a6.91,6.91,0,0,0,.12,2.25c.4,1.74,1,3.07,1,3.1a3.41,3.41,0,0,1-.43-.86,11.15,11.15,0,0,1-.73-2.19,6.17,6.17,0,0,1-.07-2.32A2.26,2.26,0,0,1,114.09,337.73Z" style="fill:#e0e0e0"></path><path d="M111,350.83s.63,1.09,1.6,2.3,1.92,2,1.87,2.08a3.11,3.11,0,0,1-.66-.5,11.75,11.75,0,0,1-2.48-3.12A2.5,2.5,0,0,1,111,350.83Z" style="fill:#e0e0e0"></path><path d="M118.83,352.16a3.81,3.81,0,0,1-.51.78,18.07,18.07,0,0,1-3.14,3.24,3.23,3.23,0,0,1-.77.54,5.34,5.34,0,0,1,.68-.65c.42-.38,1-.93,1.61-1.55s1.13-1.23,1.5-1.67A4.45,4.45,0,0,1,118.83,352.16Z" style="fill:#e0e0e0"></path><g style="opacity:0.30000000000000004"><path d="M108.4,302.69a40.31,40.31,0,0,0,13.15,6.93,13.54,13.54,0,0,0,6.32.72,5.91,5.91,0,0,0,4.74-3.83c.15-.51.13-1.19-.35-1.41s-1,.22-1.49.56c-1.43,1.07-5.69,1.33-7.47,1.12-5.83-.68-9.62-2.1-14.9-4.07"></path></g><path d="M146,343.27a2.25,2.25,0,0,1,.16.48c.09.33.24.8.36,1.43a29.58,29.58,0,0,1,.67,5.39,32.91,32.91,0,0,1-16.54,30,30.61,30.61,0,0,1-4.92,2.31c-.59.23-1.08.35-1.4.46a1.72,1.72,0,0,1-.5.11,18.63,18.63,0,0,1,1.83-.76,35.38,35.38,0,0,0,4.8-2.43,33.49,33.49,0,0,0,16.36-29.64,33.54,33.54,0,0,0-.5-5.36A18,18,0,0,1,146,343.27Z" style="fill:#263238"></path><g style="opacity:0.2"><path d="M146.82,349.84a14.41,14.41,0,0,1-5.08,11.45c-2.15,1.79-4.8,2.92-7,4.73a14,14,0,0,0-4.25,6.29c-.41,1.27-.59,2.82.33,3.78s2.83.82,4.21.23c4.51-1.91,7.72-6.14,9.45-10.72s2.15-9.55,2.45-14.44"></path></g><path d="M172.12,346.14a16.18,16.18,0,0,1,.14-12.23,46,46,0,0,0-.75,6.11A45,45,0,0,0,172.12,346.14Z" style="fill:#263238"></path><path d="M175.14,344.93a11.85,11.85,0,0,1-2.46-5.34,11.69,11.69,0,0,1-.08-5.87,37.3,37.3,0,0,0,.59,5.76A40.63,40.63,0,0,0,175.14,344.93Z" style="fill:#263238"></path><path d="M224.59,316.68s-.31-.24-.86-.5a3.45,3.45,0,0,0-2.39-.22l-.45.13.23-.42a5.63,5.63,0,0,0,.62-1.88,6.53,6.53,0,0,0-.58-3.78c-.44-.91-.91-1.35-.85-1.4a3.06,3.06,0,0,1,1.11,1.26,6.19,6.19,0,0,1,.74,4,6,6,0,0,1-.7,2l-.23-.29a3.46,3.46,0,0,1,2.61.39C224.41,316.32,224.61,316.66,224.59,316.68Z" style="fill:#aa6550"></path><path d="M231.3,312.31c.93-2.28,10.25-6.3,9-7.73-1.59-1.86-9.55,4.64-10.26,5.14s-1.43-.53-.76-1c.95-.6,10.86-7.13,9.32-9-.86-1-2.52.74-2.52.74s-8.84,6.81-9.54,5.91,4.34-5.08,6.14-6.36,1.93-2.65.73-3c-.82-.23-6.42,3.57-8.18,4.89s-6.5,5-5.58,1.24.23-7-.54-7.72-2.07.11-1.86,1.29a14.31,14.31,0,0,1-.2,3.89,13.58,13.58,0,0,1-1,3,13.05,13.05,0,0,1-4.37,5.45l9.85,11.6,1.26-.85c4.87-3.31,9.44-4.58,12.08-6.1,4.91-2.84,4.67-3.29,4.26-3.82C238.08,308.53,230.37,314.59,231.3,312.31Z" style="fill:#b78876"></path><path d="M218,294l3.19,20.71,12.48-.21.58-3.87s7.07,0,7.62-6-5.52-6.06-5.52-6.06l.92-5.41Zm16.55,14.52,1.47-7.68s4.27-.07,3.94,3.38S234.5,308.49,234.5,308.49Z" style="fill:#455a64"></path><path d="M227.28,266.11s.09.05.23.18a3.3,3.3,0,0,1,.48.69,5,5,0,0,1,.3,3.06,16.15,16.15,0,0,1-1.64,4.23,11.09,11.09,0,0,0-.85,2.45,4.8,4.8,0,0,0,.22,2.67,14.68,14.68,0,0,0,3.16,4.36,8.89,8.89,0,0,1,2.3,3.94,4.37,4.37,0,0,1-.41,3,2.71,2.71,0,0,1-.53.66c-.15.12-.24.18-.25.16a7.57,7.57,0,0,0,.6-.91,4.32,4.32,0,0,0,.23-2.87,8.71,8.71,0,0,0-2.3-3.7,14.78,14.78,0,0,1-3.29-4.5,5.31,5.31,0,0,1-.23-2.94,10.75,10.75,0,0,1,.92-2.56,17.64,17.64,0,0,0,1.71-4.1,5,5,0,0,0-.12-2.9C227.53,266.42,227.24,266.14,227.28,266.11Z" style="fill:#263238"></path><path d="M224,266.16s.09,0,.23.19a2.81,2.81,0,0,1,.49.69,4.94,4.94,0,0,1,.3,3.06,16.65,16.65,0,0,1-1.64,4.23,10.28,10.28,0,0,0-.85,2.45,4.9,4.9,0,0,0,.21,2.67,15.13,15.13,0,0,0,3.16,4.36,8.72,8.72,0,0,1,2.3,3.93,4.3,4.3,0,0,1-.41,3.05,2.41,2.41,0,0,1-.53.65c-.15.13-.23.18-.24.17s.29-.29.59-.92a4.32,4.32,0,0,0,.23-2.87,8.75,8.75,0,0,0-2.29-3.69,14.76,14.76,0,0,1-3.3-4.5,5.34,5.34,0,0,1-.22-2.95,10.46,10.46,0,0,1,.91-2.56,16.92,16.92,0,0,0,1.71-4.09,4.93,4.93,0,0,0-.12-2.91C224.22,266.48,223.92,266.19,224,266.16Z" style="fill:#263238"></path><path d="M219.17,302.48s0-.3.43-.63a2.35,2.35,0,0,1,2-.33,6.33,6.33,0,0,1,2.51,1.7,3.85,3.85,0,0,0,3,1.4c1.18-.15,2.17-1,3.22-1.43a4.29,4.29,0,0,1,1.6-.43,3.41,3.41,0,0,1,1.43.29,3.27,3.27,0,0,1,1.53,1.37c.23.43.26.7.23.71s-.13-.23-.4-.6a3.41,3.41,0,0,0-1.5-1.14,3.26,3.26,0,0,0-1.27-.2,4.26,4.26,0,0,0-1.42.43,11.5,11.5,0,0,1-3.36,1.52,3,3,0,0,1-2-.45,7.24,7.24,0,0,1-1.4-1.12,6.4,6.4,0,0,0-2.28-1.7,2.3,2.3,0,0,0-1.81.15C219.33,302.25,219.21,302.5,219.17,302.48Z" style="fill:#fafafa"></path><path d="M218.72,299.81s0-.32.45-.65a2.51,2.51,0,0,1,2.15-.36,6.9,6.9,0,0,1,2.66,1.81c.83.78,1.89,1.67,3.17,1.5s2.31-1,3.42-1.53a4.57,4.57,0,0,1,1.7-.45,3.55,3.55,0,0,1,3.14,1.75c.25.45.28.75.25.75s-.14-.25-.42-.64a3.7,3.7,0,0,0-1.6-1.22,3.45,3.45,0,0,0-1.35-.21,4.4,4.4,0,0,0-1.52.46c-1,.47-2.07,1.39-3.57,1.61a3.23,3.23,0,0,1-2.06-.47,8,8,0,0,1-1.49-1.2,6.83,6.83,0,0,0-2.43-1.8,2.4,2.4,0,0,0-1.93.16C218.88,299.57,218.76,299.84,218.72,299.81Z" style="fill:#fafafa"></path><polygon points="125.25 404.55 142.48 428.87 331.63 428.78 331.52 407.31 235.87 398.21 156.4 386.39 125.25 404.55" style="fill:#263238"></polygon><path d="M155.66,387.1l13.43-18.54,37.84-46.72a24.65,24.65,0,0,1,20.68-7.75h0a24.65,24.65,0,0,1,20.67,16.35l25,76.24-33.1-5.2-16.82-47.16-26.52,37Z" style="fill:#263238"></path><path d="M273.25,401.76H273l-.86,0-3.31-.24-12.16-1-40.12-3.37-22.09-1.92c-3.39-.32-6.62-.56-9.64-.89a72,72,0,0,1-8.32-1.4,25.84,25.84,0,0,1-6.58-2.33,15.91,15.91,0,0,1-4.15-3.23,11.1,11.1,0,0,1-1.87-2.76,6.41,6.41,0,0,1-.43-1.07,13.83,13.83,0,0,0,2.45,3.69,15.44,15.44,0,0,0,4.14,3.11,25.65,25.65,0,0,0,6.52,2.23,72,72,0,0,0,8.29,1.33c3,.31,6.24.54,9.64.84l22.08,1.88,40.11,3.52,12.15,1.13,3.3.33.86.1Z" style="fill:#455a64"></path><path d="M226,337.26a20.31,20.31,0,0,1-.77,2.44,37.56,37.56,0,0,0-1.81,12.09,18.37,18.37,0,0,1,0,2.56,9.26,9.26,0,0,1-.38-2.54,28.71,28.71,0,0,1,.26-6.21,29.18,29.18,0,0,1,1.58-6A9.35,9.35,0,0,1,226,337.26Z" style="fill:#455a64"></path><path d="M218.7,343.62a56.4,56.4,0,0,0,1.82,5.72,56.94,56.94,0,0,0,2.87,5.26,16.85,16.85,0,0,1-4.69-11Z" style="fill:#455a64"></path><path d="M326.71,413.74a43.22,43.22,0,0,0-1.59,7.51,43.73,43.73,0,0,0,.3,7.67,7.44,7.44,0,0,1-.6-2.21,22.36,22.36,0,0,1-.22-5.51,22.13,22.13,0,0,1,1.15-5.39A6.87,6.87,0,0,1,326.71,413.74Z" style="fill:#455a64"></path><path d="M132.81,304.47s0,.09-.16.22a3.65,3.65,0,0,1-.56.55,7.08,7.08,0,0,1-2.57,1.29c-2.36.73-5.77.55-9.39,0a40.08,40.08,0,0,1-9-2.59c-1.11-.46-2-.9-2.58-1.21a3.89,3.89,0,0,1-.89-.56c0-.07,1.37.59,3.61,1.43a47.37,47.37,0,0,0,9,2.41c3.59.56,6.93.78,9.22.18A8.88,8.88,0,0,0,132.81,304.47Z" style="fill:#263238"></path></g><g id="freepik--Plant--inject-2"><path d="M664.52,349.46c4.19-2.16,9.13-2.44,13.78-1.67,2.51.41,5.11,1.16,6.82,3s2,5.18.07,6.8a6.53,6.53,0,0,1-4.3,1.08c-3.64,0-7.69-.68-10.6,1.51-1.66,1.25-2.77,3.33-4.75,3.95a4.7,4.7,0,0,1-5.17-2.3,8,8,0,0,1-.58-5.92A9,9,0,0,1,664.52,349.46Z" style="fill:#FF725E"></path><path d="M654.91,330.91c2.56,3.67,7.55,2.45,9.86.22s3.29-5.48,4.18-8.57c2-7.06,4.08-14.46,2.56-21.65a12,12,0,0,0-2.76-5.89,6.3,6.3,0,0,0-6-2c-2.51.67-4.07,3.13-5.2,5.47a51.63,51.63,0,0,0-5.1,22.15c0,3.57.41,7.31,2.42,10.25" style="fill:#FF725E"></path><path d="M647.87,336.17c2.78-3.3,3.31-8.12,2.07-12.26a23.72,23.72,0,0,0-7.26-10.54,39.09,39.09,0,0,0-13-7.67,13.72,13.72,0,0,0-5.85-1,6.17,6.17,0,0,0-4.91,3c-1.36,2.61,0,5.78,1.37,8.36a99.16,99.16,0,0,0,8.54,13c2.56,3.3,5.49,6.56,9.4,8s7.95,1.32,10-1.39" style="fill:#FF725E"></path><path d="M654.74,386.16a9.33,9.33,0,0,0,.23-1.66c.12-1.22.26-2.74.44-4.55a65.52,65.52,0,0,1,1-6.66,52.09,52.09,0,0,1,2.42-7.86,29.18,29.18,0,0,1,4-7.11,15,15,0,0,1,5.07-4.22,14.18,14.18,0,0,1,4.28-1.33,8.85,8.85,0,0,0,1.66-.24,7.38,7.38,0,0,0-1.69,0,13,13,0,0,0-4.46,1.16,14.92,14.92,0,0,0-5.35,4.26,28.25,28.25,0,0,0-4.16,7.25,48.08,48.08,0,0,0-2.41,8,56.82,56.82,0,0,0-.88,6.75c-.15,1.93-.2,3.49-.23,4.57A7.59,7.59,0,0,0,654.74,386.16Z" style="fill:#263238"></path><path d="M655.05,382.67a3.45,3.45,0,0,0,0-.78v-2.2c0-1.92,0-4.69.1-8.12.17-6.85.76-14.22,1.9-24.61,1.07-9.77,2.52-21.14,4-28.54.33-1.68.66-3.19,1-4.52s.55-2.47.79-3.4.38-1.58.52-2.14a3.35,3.35,0,0,0,.13-.77,4.42,4.42,0,0,0-.27.73c-.17.55-.38,1.25-.64,2.11s-.57,2.06-.91,3.38-.71,2.83-1.07,4.51a251,251,0,0,0-4.26,26.48c-1.14,10.41-1.65,19.9-1.7,26.76,0,3.44,0,6.21.12,8.13.06.9.1,1.63.14,2.21A3.21,3.21,0,0,0,655.05,382.67Z" style="fill:#263238"></path><path d="M655.1,364.38a17.69,17.69,0,0,0,0-2.31c-.09-1.48-.29-3.62-.71-6.25a81.54,81.54,0,0,0-2-9.1,74,74,0,0,0-3.81-10.78,57.57,57.57,0,0,0-11.18-17.41,27,27,0,0,0-2.63-2.44c-.4-.34-.76-.69-1.12-.95l-1-.71a13.88,13.88,0,0,0-2-1.24,67,67,0,0,1,6.37,5.68,60.31,60.31,0,0,1,10.9,17.35,83.56,83.56,0,0,1,3.83,10.67,91.66,91.66,0,0,1,2.16,9c.48,2.59.76,4.71.92,6.18A14.4,14.4,0,0,0,655.1,364.38Z" style="fill:#263238"></path><polygon points="637.42 396.64 639.25 421.74 671.5 421.74 673.34 396.64 637.42 396.64" style="fill:#263238"></polygon><rect x="634.3" y="386.74" width="42.88" height="9.9" style="fill:#263238"></rect><polygon points="634.3 420.78 634.3 423.52 636.32 423.52 676.48 423.52 676.48 420.78 634.3 420.78" style="fill:#455a64"></polygon><polygon points="638.29 428.35 636.32 423.52 674.94 423.52 672.64 428.35 638.29 428.35" style="fill:#455a64"></polygon><path d="M672.74,404.84a1.58,1.58,0,0,1-.15.23l-.48.64-1.88,2.41-.09.1-.08-.11-4.61-6.38h.26l-4.54,6.43-.15.2-.15-.19-5.39-6.41h.31l-.3.37-4.82,6-.16.2-.15-.21-4.55-6.43h.27l-5.6,6.38-.1.12-.08-.13-1.75-2.95-.45-.78a2.77,2.77,0,0,1-.14-.28s.08.08.19.25l.5.75,1.84,2.9-.18,0c1.44-1.68,3.31-3.87,5.51-6.46l.14-.16.13.18,4.59,6.4h-.31l4.81-6.05.29-.37.16-.19.15.18,5.38,6.43h-.3l4.59-6.4.13-.19.13.19,4.52,6.45h-.16l1.95-2.35.52-.6A1,1,0,0,1,672.74,404.84Z" style="fill:#e0e0e0"></path><path d="M673.79,396.47c0,.11-8.09.2-18,.2s-18-.09-18-.2,8.08-.2,18-.2S673.79,396.36,673.79,396.47Z" style="fill:#455a64"></path><path d="M675.41,423.8c0,.11-8.78.2-19.61.2s-19.62-.09-19.62-.2,8.78-.2,19.62-.2S675.41,423.69,675.41,423.8Z" style="fill:#263238"></path></g></svg>
